<svg xmlns="http://www.w3.org/2000/svg" width="17.631" height="17.726" viewBox="0 0 17.631 17.726">
  <g id="Group_4329" data-name="Group 4329" transform="translate(0.416 0.489)">
    <path id="Path_4198" data-name="Path 4198" d="M9.938,11.962A8.853,8.853,0,0,0,15.257,16.8a1.117,1.117,0,0,0,1.123-.265c.249-.248.562-.565.846-.855a1.1,1.1,0,0,1,1.563-.007l2.371,2.371a1.1,1.1,0,0,1,0,1.556l-1.917,1.917a1.785,1.785,0,0,1-1.852.427C14.6,20.972,7.243,17.67,4.744,9.31a1.8,1.8,0,0,1,.44-1.787c.581-.583,1.4-1.389,1.991-1.977a1.1,1.1,0,0,1,1.55.006L11.26,8.086a1.1,1.1,0,0,1,0,1.556l-1.095,1.095A1.092,1.092,0,0,0,9.938,11.962Z" transform="translate(-4.667 -5.229)" fill="none" stroke="#707070" stroke-linecap="round" stroke-linejoin="round" stroke-width="0.8"/>
  </g>
</svg>
