<svg xmlns="http://www.w3.org/2000/svg" width="20.2" height="26.2" viewBox="0 0 20.2 26.2"><g transform="translate(-27.847 -4.072)"><path d="M3.6-.6A4.2,4.2,0,1,1-.6,3.6,4.2,4.2,0,0,1,3.6-.6Zm0,7.2a3,3,0,1,0-3-3A3,3,0,0,0,3.6,6.6Z" transform="translate(34.348 10.286)" fill="#707070"/><path d="M37.947,4.072a10.062,10.062,0,0,1,10.1,10,9.916,9.916,0,0,1-.4,2.791c-.661,3.031-3.83,7.5-9.167,12.931-.1.1-.193.2-.234.24a.6.6,0,0,1-.274.2.624.624,0,0,1-.212.037c-.325,0-.541-.176-1.215-.989-.361-.435-.763-.952-1.029-1.293-.12-.154-.223-.287-.258-.328-.641-.768-1.225-1.487-1.785-2.2-1.013-1.288-1.866-2.444-2.605-3.533-1.46-2.15-3.019-4.708-3.019-7.858A10.062,10.062,0,0,1,37.947,4.072Zm-.211,24.765c5.049-5.154,8.151-9.5,8.741-12.248q0-.022.011-.044a8.718,8.718,0,0,0,.359-2.473,8.9,8.9,0,0,0-17.8,0c0,2.526,1.124,4.7,2.811,7.183.724,1.066,1.56,2.2,2.556,3.465.553.7,1.13,1.414,1.763,2.172.046.055.129.161.284.36C37.037,27.994,37.464,28.524,37.736,28.837Z" transform="translate(0 0)" fill="#707070"/></g></svg>