<svg xmlns="http://www.w3.org/2000/svg" width="26.2" height="26.2" viewBox="0 0 26.2 26.2"><g transform="translate(-4.078 -4.073)"><path d="M12.5-.6a13.1,13.1,0,0,1,9.263,22.363A13.1,13.1,0,0,1,3.237,3.237,13.014,13.014,0,0,1,12.5-.6Zm0,25A11.9,11.9,0,1,0,.6,12.5,11.913,11.913,0,0,0,12.5,24.4Z" transform="translate(4.678 4.672)" fill="#707070"/><path d="M0,9.528a.6.6,0,0,1-.6-.6V0A.6.6,0,0,1,0-.6.6.6,0,0,1,.6,0V8.928A.6.6,0,0,1,0,9.528Z" transform="translate(16.94 8.006)" fill="#707070"/><path d="M8.928.6H0A.6.6,0,0,1-.6,0,.6.6,0,0,1,0-.6H8.928a.6.6,0,0,1,.6.6A.6.6,0,0,1,8.928.6Z" transform="translate(16.94 16.934)" fill="#707070"/></g></svg>